<?xml version="1.0" standalone="no"?>
<!DOCTYPE svg PUBLIC "-//W3C//DTD SVG 20010904//EN"
 "http://www.w3.org/TR/2001/REC-SVG-20010904/DTD/svg10.dtd">
<svg version="1.0" xmlns="http://www.w3.org/2000/svg"
 width="512.000000pt" height="512.000000pt" viewBox="0 0 512.000000 512.000000"
 preserveAspectRatio="xMidYMid meet">
<metadata>
Created by potrace 1.14, written by Peter Selinger 2001-2017
</metadata>
<g transform="translate(0.000000,512.000000) scale(0.100000,-0.100000)"
fill="#000000" stroke="none">
<path d="M3822 4408 c-761 -762 -813 -818 -913 -994 -48 -84 -119 -230 -119
-244 0 -9 -4 -20 -9 -25 -21 -22 -95 -282 -107 -378 -3 -23 -10 -69 -16 -102
-10 -61 -13 -339 -3 -385 2 -14 7 -45 10 -70 9 -79 16 -125 21 -142 3 -9 6
-25 8 -35 2 -10 9 -38 16 -63 7 -25 13 -50 14 -57 1 -7 5 -16 9 -19 4 -4 7
-14 7 -22 0 -24 70 -191 122 -291 46 -87 150 -251 180 -282 7 -8 28 -33 47
-57 48 -62 101 -114 111 -110 14 5 1371 1360 1427 1425 109 126 203 270 276
424 59 124 130 334 143 419 2 14 6 36 9 50 45 206 37 539 -21 773 -8 34 -16
69 -18 78 -8 32 -59 176 -78 219 -63 143 -183 351 -232 403 -6 7 -23 28 -37
47 -15 20 -51 62 -80 93 l-54 57 -713 -712z"/>
<path d="M530 5049 c-69 -76 -189 -235 -219 -291 -122 -224 -200 -418 -226
-563 -3 -16 -12 -66 -20 -110 -38 -203 -34 -448 11 -672 2 -13 6 -35 9 -50 9
-44 75 -254 96 -303 61 -142 158 -308 254 -435 52 -70 1475 -1505 1492 -1505
8 0 81 77 119 126 16 20 34 42 40 49 22 22 118 169 157 240 68 124 115 241
170 420 50 161 78 500 57 670 -15 116 -21 160 -25 175 -2 8 -7 31 -10 50 -3
19 -10 49 -15 65 -5 17 -19 62 -31 100 -41 132 -102 268 -183 405 -27 46 -53
89 -58 95 -4 5 -41 51 -80 102 -43 56 -349 369 -773 793 -386 385 -704 700
-706 700 -2 0 -29 -27 -59 -61z"/>
<path d="M4003 1654 c-365 -364 -663 -666 -663 -670 0 -5 218 -227 484 -493
l484 -485 60 65 c70 74 184 215 227 279 16 25 32 47 35 50 10 9 98 160 127
219 15 31 30 58 33 61 3 3 19 39 35 80 16 41 32 80 36 85 7 11 46 128 54 161
2 10 13 55 24 99 21 84 25 108 38 228 12 122 6 331 -12 397 -2 8 -6 26 -9 40
-20 121 -138 391 -178 408 -5 2 -8 8 -8 13 0 9 -24 40 -75 93 l-30 32 -662
-662z"/>
<path d="M419 2269 c-19 -23 -39 -47 -44 -53 -24 -26 -96 -146 -124 -206 -36
-78 -80 -213 -87 -267 -2 -21 -8 -63 -14 -93 -13 -77 -4 -359 14 -455 37 -195
122 -440 203 -585 11 -19 32 -57 47 -84 92 -166 188 -293 371 -494 l30 -33
485 486 c267 267 486 487 488 489 2 2 -1291 1297 -1332 1333 -1 2 -18 -16 -37
-38z"/>
</g>
</svg>
