<svg width="1238" height="959" viewBox="0 0 1238 959" fill="none" xmlns="http://www.w3.org/2000/svg">
<path d="M945.799 957.57C1012.11 891.415 1056.48 808.697 1069.14 727.613C1081.8 646.528 1061.72 573.719 1013.32 525.204L763.298 774.642L945.799 957.57Z" fill="#06D6A0"/>
<path d="M292.101 959C225.791 892.845 181.425 810.127 168.762 729.042C156.1 647.958 176.178 575.149 224.58 526.633L474.603 776.071L292.101 959Z" fill="#FFBE0B"/>
<path d="M499.436 250.83C565.746 316.985 603.06 406.772 603.17 500.439C603.279 594.106 566.175 683.981 500.02 750.291L249.998 500.853L499.436 250.83Z" fill="#FF0075"/>
<path d="M250.022 500.89C183.712 434.735 146.398 344.948 146.288 251.281C146.179 157.614 183.283 67.7402 249.438 1.43016L499.46 250.868L250.022 500.89Z" fill="#FF0075"/>
<path d="M738.464 249.401C672.154 315.556 634.84 405.343 634.731 499.01C634.621 592.677 671.725 682.551 737.88 748.861L987.902 499.423L738.464 249.401Z" fill="#0076FF"/>
<path d="M987.876 499.461C1054.19 433.306 1091.5 343.519 1091.61 249.852C1091.72 156.185 1054.61 66.3105 988.46 0.000476181L738.438 249.438L987.876 499.461Z" fill="#0076FF"/>
</svg>
